<svg version="1.2" xmlns="http://www.w3.org/2000/svg" viewBox="0 0 1161 288" width="1161" height="288"><style>.a{fill:#fff}</style><path fill-rule="evenodd" class="a" d="m233 156.4c-2.9 0-5.2 2.4-5.2 5.3 0 2.9 2.3 5.2 5.2 5.2 2.9 0 5.3-2.3 5.3-5.2 0-2.9-2.4-5.3-5.3-5.3zm-4.5 41.5h8.8v-25.6h-8.8z"/><path class="a" d="m243.6 172.3h8.8v2.7h0.1c1.9-2.1 4.6-3.4 7.4-3.5 4.7 0 11.2 2.4 11.2 9.5v16.9h-8.8v-14.5c0.1-2.6-1.9-4.8-4.5-5q-0.1 0-0.1 0c-2.8 0.1-5 2.2-5.3 5v14.5h-8.8z"/><path class="a" d="m318.7 186.9l4 8c0 0-4.6 3.8-13.5 3.8-11.7 0-22.4-9.5-22.4-21.3 0-11.9 10.7-21.5 22.4-21.5 8.9 0 13.5 3.8 13.5 3.8l-4 8c-2.3-1.6-5.2-2.5-8.1-2.5-9.4 0-13.6 6.6-13.6 12.1 0 5.5 4.2 12.1 13.6 12.1 2.9 0 5.8-0.9 8.1-2.5z"/><path class="a" d="m326.3 172.3h8.9v3.7h0.1c0 0 2.8-4.5 7.8-4.5 2 0 4 0.6 5.6 1.6l-3.7 7.5c-1.3-1-2.9-1.4-4.6-1.4-4.6 0-5.2 4.6-5.2 5.2v13.5h-8.9z"/><path class="a" d="m380.9 172.3l-20.2 38.6h-10.2l8.9-17-12.2-21.6h10.2l7.2 13.1 6.1-13.1z"/><path fill-rule="evenodd" class="a" d="m400.1 198.7c-3.1 0.1-6.1-1.1-8.4-3.2v15.4h-8.8v-38.6h8.7v2.9h0.1c2.2-2.4 5.2-3.7 8.4-3.7 7.5 0 12.8 6.1 12.8 13.6 0 7.5-5.3 13.6-12.8 13.6zm-2.6-19.6c-3.2-0.1-5.9 2.4-6 5.5q0 0.3 0 0.5c0 3.3 2.6 6 5.9 6 3.3 0.1 6-2.6 6.1-5.9q0-0.1 0-0.1c0.1-3.2-2.3-5.9-5.5-6q-0.2 0-0.5 0z"/><path class="a" d="m418.2 162.7h8.9v9.6h5.4v6.7h-5.4v8.2c0 2.4 0.6 3.5 2 3.5 0.8 0 1.5-0.3 2.2-0.8l2.2 7.2c-2 1-4.3 1.5-6.5 1.6-7.1 0-8.8-5.3-8.8-9.8v-9.9h-3.7v-6.7h3.7z"/><path fill-rule="evenodd" class="a" d="m450.1 171.5c8.5 0 15.3 5.6 15.3 13.6 0 7.9-6.5 13.6-15.3 13.6-9.3 0-15.5-5.7-15.5-13.6 0-8 6.8-13.6 15.5-13.6zm-0.1 19.6c3.2 0.1 5.9-2.4 6-5.6q0-0.2 0-0.4c0-3.3-2.6-6-5.9-6-3.3-0.1-6 2.6-6.1 5.9q0 0 0 0.1c-0.1 3.2 2.3 5.8 5.5 6q0.2 0 0.5 0z"/><path class="a" d="m493.1 164.9h-14.2v8.2h13.6v8.3h-13.6v8.3h14.2v8.2h-23.6v-41.2h23.6z"/><path class="a" d="m498.5 172.3h8.9v2.7h0.1c1.9-2.1 4.5-3.4 7.3-3.5 4.7 0 11.3 2.4 11.3 9.5v16.9h-8.9v-14.5c0.2-2.6-1.8-4.8-4.4-5q-0.1 0-0.2 0c-2.7 0.1-5 2.2-5.2 5v14.5h-8.9z"/><path fill-rule="evenodd" class="a" d="m538.9 186.3c0 4 3.3 5.3 5.6 5.3 2.8 0 4.1-0.5 6.2-2.8l6.4 3.2c-2.9 4.8-7.6 6.7-13.3 6.7-7.7 0-14.1-6.1-14.1-13.6 0.2-7.6 6.5-13.7 14.1-13.6 7.8 0 13.8 4.6 13.8 13.6q0 0.6-0.1 1.2zm10-4.9c-0.2-2.5-2.3-4.3-4.8-4.1-3.1 0-4.8 1.8-4.9 4.1z"/><path class="a" d="m561.6 172.3h8.9v3.7h0.1c0 0 2.8-4.5 7.8-4.5 2 0 3.9 0.6 5.6 1.6l-3.7 7.5c-1.3-1-2.9-1.4-4.6-1.4-4.6 0-5.2 4.6-5.2 5.2v13.5h-8.9z"/><path fill-rule="evenodd" class="a" d="m592.2 200.7c1 1.5 3.1 3.3 7 3.3 2.4 0 6.2-1.5 6.2-6v-1.9c-1.9 2.1-4.9 2.6-8.4 2.6-7.5 0-12.7-6.1-12.7-13.6 0-7.5 5.2-13.6 12.7-13.6 3.1-0.1 6 1 8.3 3.1h0.1v-2.3h8.9v26.3c0 8.6-6.4 13.1-15.1 13.1-5.4 0-11.5-1.2-14.2-7.5zm7.4-9.5c3.2 0.1 5.9-2.4 6-5.6q0-0.2 0-0.4c0-3.3-2.6-6-5.9-6.1-3.3 0-6 2.6-6.1 5.9q0 0.1 0 0.2c-0.1 3.1 2.3 5.8 5.5 6q0.2 0 0.5 0z"/><path class="a" d="m649.9 172.3l-20.1 38.6h-10.2l8.8-17-12.1-21.6h10.2l7.1 13.1 6.1-13.1z"/><path class="a" d="m675 197.9l-13.7-25.6h10.2l6.2 13.8 6.2-13.8h6.1l6.1 13.8 6.3-13.8h10.2l-13.8 25.6h-6l-5.9-13.2-5.9 13.2z"/><path fill-rule="evenodd" class="a" d="m721.8 186.3c0 4 3.3 5.3 5.5 5.3 2.9 0 4.1-0.5 6.3-2.8l6.4 3.2c-2.9 4.8-7.6 6.7-13.3 6.7-7.8 0-14.1-6.1-14.1-13.6 0.1-7.6 6.4-13.7 14.1-13.6 7.8 0 13.7 4.6 13.7 13.6q0 0.6 0 1.2zm10-4.9c-0.2-2.5-2.4-4.3-4.9-4.1-3 0-4.7 1.8-4.9 4.1z"/><path class="a" d="m759.7 162.7h8.9v9.6h5.4v6.7h-5.4v8.2c0 2.4 0.6 3.5 2 3.5 0.8 0 1.5-0.3 2.2-0.8l2.2 7.2c-2 1-4.3 1.5-6.5 1.6-7.1 0-8.8-5.3-8.8-9.8v-9.9h-3.7v-6.7h3.7z"/><path class="a" d="m778 172.3h8.8v3.7h0.1c0 0 2.8-4.5 7.9-4.5 2 0 3.9 0.6 5.6 1.6l-3.7 7.5c-1.4-1-3-1.4-4.6-1.4-4.6 0-5.3 4.6-5.3 5.2v13.5h-8.8z"/><path class="a" d="m811.2 184.5c0 5 1.4 7 5.1 7 3.7 0 5-2 5-7v-12.2h8.9v14.3c0 8.6-4.3 12.1-13.9 12.1-9.6 0-13.9-3.5-13.9-12.1v-14.3h8.8z"/><path class="a" d="m855.2 173.5l-2.9 5.8c-1.7-0.9-3.7-1.5-5.7-1.6-1.9 0-2.7 0.4-2.7 1.6 0 1.3 1.8 1.7 4 2.4 3.4 1.1 7.8 3 7.8 8.2 0 7.6-6.9 8.8-12.2 8.8-3.6 0-7.1-1.2-9.9-3.5l3.6-6c0 0 3.5 2.9 6.4 2.9 1.2 0 2.7-0.1 2.7-1.8 0-1.9-2.8-2-5.7-3.5-2.6-1.4-5.2-3.2-5.2-7 0-5.3 4.5-8.3 11.2-8.3 3 0 5.9 0.7 8.6 2z"/><path class="a" d="m861.1 162.7h8.9v9.6h5.4v6.7h-5.4v8.2c0 2.4 0.6 3.5 2 3.5 0.8 0 1.5-0.3 2.2-0.8l2.2 7.2c-2 1-4.3 1.5-6.5 1.6-7.1 0-8.8-5.3-8.8-9.8v-9.9h-3.7v-6.7h3.7z"/><path class="a" d="m111 59.7c-0.7-1.4-1.7-2.6-3-3.6l-17.8-15.6c0.1 0-18.5 4.5-19.9 25.8 0 0-1.8 15.2 2.9 25.2l2.8 5.7c0 0 1.7 3.7 10 16.3l17.2 23q4.1 5.6 7.2 11.8c0 0 2.2 8 6.2 8.5 0.7 0.2 1.4 0 2-0.5 0 0 0.4 0.3 1.8-4.7l8-24.1c2.5-7.5 5.2-15.2 8-22.9 4.9-13.6 10-26.8 15.1-39.5q2.8 0.7 5.8 0.9c0 0 3.1 0.1 4.5-1.1 0.1 0 0.1-0.1 0.2-0.2 1.3-1.4 0.1-3.4 0-3.6-1.3-1.7-2.9-3.3-4.6-4.6 2.3-2.5 4.9-5 7.7-7.6q6.4-5.9 13.7-10.9c5.9-4.7 13.5-6.9 21-6.3 5.8 0.6 11.2 3 15.5 6.8 9 8.4 8.5 20.2 8.3 22q0.3 9.6-0.6 19c-1.6 15.7-5.4 31-11.2 45.5 0 0-8.7 32.8-44.7 61.9 0 0-29.9 24.8-64.7 24.1 0 0-52.1 3-77.1-36.8 0 0-4.9-6.4-6.2-23.9-0.7-13.6 2.2-27.1 8.4-39.3 3.3 1.3 6.5 2.7 9.8 4-1.4-11.9-2.9-23.9-4.3-35.8-10.5 7-21.1 14-31.6 21 3.3 1.3 6.5 2.7 9.8 4-8.5 14.3-12.3 30.9-10.9 47.4 0 0 0.8 16.4 7.8 30.5 0 0 12.5 26.6 46.4 39.9 0 0 44.3 18.8 95.5-3.4 0 0 48.8-20.4 73.8-71.3 7.3-14.8 11.6-31.5 13.1-37.2 6.6-25.5 6.5-41.5 5.8-50.3-0.9-11.4-3-19.1-7.3-26.1-2.9-4.6-6.5-8.7-10.7-12.2-5.2-4.1-11.2-7.1-17.6-8.8-6.9-1.1-14-0.9-20.8 0.4-26.4 5.1-40.6 26.5-44.2 32.1 0 0-3.6-5-5.9-3.2 0 0-3.9 2.3 1.2 8.1 0.1 0.3 0.5 0.5 0.6 0.8l-31.3 80c0 0-23.3-26.8-21.1-48.7 0 0 2.5-17.3 12.4-21.8 2.3-0.7 4.7-0.3 6.5 1.1 0 0 2.7 2.9 5.5 2 0.1 0.1 2 0.1 1-3.8z"/><path class="a" d="m176.6 148.3l13.6-76.5h87.9l-18.6 19.8h-49.5l-1.5 9.1h60.1l-16.2 17.4h-47l-1.9 10.3h65l-18.7 19.6z"/><path class="a" d="m367.6 92l18.7-19.9h-57c0 0-17.5-0.1-31.6 10 0 0-6.6 4.9-10.3 10-2 2.8-3.7 5.8-5 9-2 5-2.9 10.4-2.5 15.7 0 0 0 6.6 4.5 14.6 2.7 4.2 6.2 7.7 10.3 10.3 6.4 4.1 13.7 6.3 21.2 6.5h41.8l18.5-19.5h-54.6c0 0-17.4 0.3-18.1-15.8 0 0-0.4-18.4 23.8-20.8z"/><path class="a" d="m408.6 148.1h23.3l10.1-56.2h27.2l18.9-19.8h-86.4l-19.1 19.7h35.7z"/><path fill-rule="evenodd" class="a" d="m588.5 122c0 0-5.5 18.1-31 24.3 0 0-26.8 7.3-55.6 0 0 0-15.5-2.7-21.1-17.3 0 0-11.7-38.7 24.3-52.6 0 0 20.8-9.2 55-4.4 0 0 17.3 2 25.5 12.1 0 0 3.4 3.6 5.8 13.3 0 0 2.2 10.7-2.9 24.6zm-21.1-21.9c-1-2.2-2.4-4.2-4.3-5.7-7.7-4.9-32.9-3.6-32.9-3.6-22.6 0-25 9.3-25 9.3-3.5 5.5-2.2 19.5-2.2 19.5 0.9 3.3 2.2 4.3 2.2 4.3 5.5 6.4 27.6 5.7 27.6 5.7 27.3 0.5 31.1-6.7 31.1-6.7 6.4-8.5 3.7-22.9 3.5-22.8z"/><path class="a" d="m609.5 91.8l18.9-19.9h52.2c0 0 20-0.6 28.2 12.1 0 0 7.7 9.7-2 27.3 0 0-5.5 9.4-19.4 12l20.2 24.8h-31.3l-13.9-20.2h-35.8l-3.7 20.2h-23.7l7-39h67.9c0 0 12.6-0.6 13-9.2 0 0 1.3-7.6-10.6-8.2z"/><path class="a" d="m743.3 148.2h-23.6l13.5-76.3h23.2z"/><path class="a" d="m772.9 71.4h23.6l-8.1 43.6c0 0-2.1 11.2 8.1 12.6 0 0 11.6 2.9 33.6 0 0 0 6.1-1.6 9.2-6.9 0 0 5.2-19.2 9.8-49.3h23.6l-8.1 44.8c0 0-2.5 23.6-29 29.7 0 0-36.2 9-61.2-4.9 0 0-10.5-5.2-9.8-20.4z"/><path class="a" d="m865 148h23.3l20.2-46.7 14.3 40.9c-0.1 0 2.4 7.8 10.9 7.2 0 0 10.3 0.6 14.5-6.5l29.3-42.3 4 47.3h23.3l-7.7-68.2c0 0-0.8-7.9-8.4-8.8-6.6-1.3-13.4 1.7-16.9 7.5l-31.9 44.6-17.3-45.3c0 0-3.5-7.2-10.2-7-6.1-0.4-11.7 2.8-14.5 8.1-5 9.2-32.9 69.2-32.9 69.2z"/><path class="a" d=""/><path class="a" d=""/><path class="a" d=""/><path class="a" d=""/><path class="a" d="m263.1 49l3.6-8h6l-7.9 14.6h-3.4l-7.8-14.6h6z"/><path fill-rule="evenodd" class="a" d="m277.9 49c0 1.7 1.3 3 3 3.1q0.1-0.1 0.2 0c1.4 0.1 2.7-0.5 3.5-1.7l3.7 1.8c-1.7 2.8-4.3 3.9-7.6 3.9-4.3 0.1-7.9-3.2-8-7.5-0.2-4.2 3.2-7.8 7.4-8q0.3 0 0.6 0c4.4 0 7.8 2.6 7.8 7.8q0 0.3 0 0.6zm5.7-2.8c-0.1-1.4-1.4-2.4-2.8-2.3-1.3-0.2-2.6 0.8-2.7 2.2q0 0.1 0 0.1z"/><path class="a" d="m295.2 48.3c-0.1 2 1.5 3.6 3.5 3.6q0 0 0 0c0.8 0.1 1.7-0.2 2.4-0.6l1.7 3.5c-1.4 0.9-3.1 1.4-4.9 1.3-4.2 0-8.1-3.5-8.1-7.7 0.4-4.7 4.4-8.1 9-7.8 1.5 0.1 2.8 0.6 4 1.4l-1.7 3.4c-0.7-0.4-1.6-0.7-2.4-0.7-2 0.1-3.5 1.7-3.5 3.6z"/><path class="a" d="m305.6 35.6h5v5.4h3.1v3.9h-3.1v4.6c0 1.4 0.4 2 1.2 2q0.7 0 1.2-0.4l1.3 4.1c-1.2 0.5-2.4 0.9-3.7 0.9-4 0-5-3-5-5.6v-5.6h-2.1v-3.9h2.1z"/><path fill-rule="evenodd" class="a" d="m323.7 40.6c4.9 0 8.7 3.2 8.7 7.8 0 4.4-3.6 7.7-8.7 7.7-5.2 0-8.8-3.3-8.8-7.8 0-4.5 3.9-7.7 8.8-7.7zm0 11.2c1.8 0 3.3-1.4 3.4-3.2q0-0.1 0-0.2c0-1.9-1.5-3.5-3.4-3.5-1.8 0-3.4 1.5-3.4 3.4q0 0 0 0.1c-0.1 1.7 1.3 3.3 3.1 3.4q0.1 0 0.3 0z"/><path class="a" d="m334.8 41h5v2.1c1.1-1.5 2.7-2.4 4.5-2.5 1.1 0 2.3 0.3 3.2 0.9l-2.1 4.3c-0.8-0.6-1.7-0.8-2.6-0.8-1.6 0-3 1.3-3 3v7.6h-5.1z"/><path fill-rule="evenodd" class="a" d="m351.5 32c-1.6 0-3 1.3-3 3 0 1.6 1.4 3 3 3 1.7 0 3-1.4 3-3 0-1.7-1.3-3-3-3zm-2.6 23.6h5.1v-14.6h-5.1z"/><path class="a" d="m362.3 48c0 2.8 0.7 4 2.9 4 2.1 0 2.8-1.2 2.8-4v-7h5.1v8.2c0 4.9-2.5 6.9-7.9 6.9-5.5 0-8-2-8-6.9v-8.2h5.1z"/><path class="a" d="m376.2 41h5v1.6h0.1c1.1-1.2 2.6-1.9 4.2-2 2.1-0.1 4 0.9 5.1 2.7 1.1-1.6 2.9-2.6 4.8-2.7 2.7 0 5.7 1.3 5.7 5.4v9.6h-5v-8.2c0.1-1.4-0.8-2.6-2.2-2.7q-0.2-0.1-0.4-0.1c-1.2 0-2.3 1-2.3 2.2q0 0.1 0 0.1v8.7h-5.1v-8.2c0.2-1.4-0.8-2.6-2.1-2.7q-0.2-0.1-0.4-0.1c-1.3 0-2.3 1-2.4 2.2q0 0.2 0 0.3v8.5h-5z"/><path class="a" d="m410.8 52.8c0 1.8-1.5 3.3-3.3 3.3-1.8 0-3.3-1.5-3.3-3.3 0.1-1.8 1.5-3.3 3.3-3.3 1.8 0 3.3 1.5 3.3 3.3q0 0 0 0z"/><path class="a" d="m418.5 48.3c-0.1 2 1.5 3.6 3.4 3.6q0.1 0 0.1 0c0.8 0.1 1.7-0.2 2.4-0.6l1.7 3.5c-1.4 0.9-3.2 1.4-4.9 1.3-4.2 0-8.1-3.5-8.1-7.7 0.4-4.7 4.4-8.1 9-7.8 1.5 0.1 2.8 0.6 4 1.4l-1.7 3.4c-0.7-0.4-1.6-0.7-2.4-0.7-2 0.1-3.5 1.7-3.5 3.6z"/><path fill-rule="evenodd" class="a" d="m435.9 40.6c4.9 0 8.7 3.2 8.7 7.8 0 4.4-3.6 7.7-8.7 7.7-5.2 0-8.8-3.3-8.8-7.8 0-4.5 3.9-7.7 8.8-7.7zm0 11.2c1.8 0 3.3-1.4 3.4-3.2q0-0.1 0-0.2c0-1.9-1.5-3.5-3.4-3.5-1.9 0-3.4 1.5-3.4 3.4q0 0 0 0.1c-0.1 1.7 1.3 3.3 3.1 3.4q0.1 0 0.3 0z"/></svg>