<svg version="1.2" xmlns="http://www.w3.org/2000/svg" viewBox="0 0 1439 941" width="1439" height="941">
	<style>
		.s0 { fill: #000000 } 
	</style>
	<g id="Livello 1">
		<g id="&lt;Group&gt;">
			<g id="&lt;Group&gt;">
				<path id="&lt;Compound Path&gt;" fill-rule="evenodd" class="s0" d="m238.28 865.28c0-2.9-2.35-5.25-5.25-5.25-2.9 0-5.25 2.35-5.25 5.25 0 2.9 2.35 5.25 5.25 5.25 2.9 0 5.25-2.35 5.25-5.25q0 0 0 0zm-9.8 36.25h8.85v-25.65h-8.85z"/>
				<path id="&lt;Path&gt;" class="s0" d="m243.58 875.88h8.85v2.7h0.1c1.9-2.07 4.54-3.32 7.35-3.45 4.7 0 11.25 2.35 11.25 9.5v16.9h-8.85v-14.5c0.15-2.61-1.86-4.85-4.47-4.99q-0.06 0-0.13-0.01c-2.76 0.1-5.02 2.25-5.25 5v14.5h-8.85z"/>
				<path id="&lt;Path&gt;" class="s0" d="m318.73 890.48l4 8c0 0-4.6 3.8-13.55 3.8-11.65 0-22.35-9.5-22.35-21.3 0-11.85 10.65-21.45 22.35-21.45 8.95 0 13.55 3.8 13.55 3.8l-4 8c-2.38-1.65-5.2-2.54-8.1-2.55-9.45 0-13.6 6.6-13.6 12.1 0 5.55 4.15 12.15 13.6 12.15 2.9-0.01 5.72-0.9 8.1-2.55z"/>
				<path id="&lt;Path&gt;" class="s0" d="m326.33 875.88h8.85v3.7h0.1c0 0 2.8-4.45 7.85-4.45 1.98 0 3.92 0.56 5.6 1.6l-3.7 7.5c-1.34-0.96-2.95-1.45-4.6-1.4-4.6 0-5.25 4.55-5.25 5.2v13.5h-8.85z"/>
				<path id="&lt;Path&gt;" class="s0" d="m380.88 875.88l-20.15 38.66h-10.2l8.85-17.01-12.15-21.65h10.2l7.15 13.15 6.1-13.15z"/>
				<path id="&lt;Compound Path&gt;" fill-rule="evenodd" class="s0" d="m400.13 902.28c-3.11 0.1-6.14-1.05-8.4-3.2v15.46h-8.85v-38.66h8.75v2.9h0.1c2.16-2.34 5.21-3.66 8.4-3.65 7.5 0 12.75 6.05 12.75 13.55 0 7.5-5.25 13.6-12.75 13.6zm-2.65-19.6c-3.18-0.1-5.85 2.39-5.95 5.58q-0.01 0.21 0 0.42c-0.04 3.3 2.6 6.01 5.9 6.05 3.3 0.04 6.01-2.6 6.05-5.9q0-0.07 0-0.15c0.16-3.15-2.27-5.84-5.43-6q-0.28-0.01-0.57 0z"/>
				<path id="&lt;Path&gt;" class="s0" d="m418.23 866.33h8.85v9.55h5.4v6.75h-5.4v8.15c0 2.4 0.6 3.55 2 3.55 0.8-0.05 1.56-0.33 2.2-0.8l2.2 7.15c-2.01 1.03-4.24 1.58-6.5 1.6-7.05 0-8.75-5.25-8.75-9.8v-9.85h-3.7v-6.75h3.7z"/>
				<path id="&lt;Compound Path&gt;" fill-rule="evenodd" class="s0" d="m450.08 875.13c8.5 0 15.3 5.6 15.3 13.6 0 7.9-6.45 13.55-15.3 13.55-9.25 0-15.45-5.65-15.45-13.55 0-8 6.8-13.6 15.45-13.6zm-0.05 19.6c3.18 0.11 5.85-2.39 5.95-5.57q0.01-0.21 0-0.43c0.04-3.3-2.6-6.01-5.9-6.05-3.3-0.04-6.01 2.6-6.05 5.9q0 0.08 0 0.15c-0.16 3.16 2.27 5.85 5.43 6q0.28 0.02 0.57 0z"/>
				<path id="&lt;Path&gt;" class="s0" d="m493.13 868.53h-14.2v8.2h13.6v8.25h-13.6v8.3h14.2v8.25h-23.6v-41.25h23.6z"/>
				<path id="&lt;Path&gt;" class="s0" d="m498.53 875.88h8.85v2.7h0.1c1.9-2.07 4.54-3.32 7.35-3.45 4.7 0 11.25 2.35 11.25 9.5v16.9h-8.85v-14.5c0.14-2.61-1.86-4.85-4.47-4.99q-0.07 0-0.13-0.01c-2.76 0.1-5.02 2.25-5.25 5v14.5h-8.85z"/>
				<path id="&lt;Compound Path&gt;" fill-rule="evenodd" class="s0" d="m538.93 889.93c0 3.95 3.3 5.3 5.55 5.3 2.85 0 4.1-0.55 6.25-2.85l6.4 3.2c-2.9 4.85-7.6 6.7-13.3 6.7-7.75 0-14.1-6.1-14.1-13.55 0.16-7.64 6.46-13.72 14.1-13.6 7.8 0 13.75 4.6 13.75 13.6q0.02 0.61-0.05 1.2zm10-4.9c-0.21-2.47-2.37-4.32-4.85-4.15-3.05 0-4.75 1.8-4.9 4.15z"/>
				<path id="&lt;Path&gt;" class="s0" d="m561.63 875.88h8.85v3.7h0.1c0 0 2.8-4.45 7.85-4.45 1.98 0 3.92 0.56 5.6 1.6l-3.7 7.5c-1.34-0.96-2.95-1.45-4.6-1.4-4.6 0-5.25 4.55-5.25 5.2v13.5h-8.85z"/>
				<path id="&lt;Compound Path&gt;" fill-rule="evenodd" class="s0" d="m592.23 904.28c0.95 1.55 3.1 3.31 6.95 3.31 2.45 0 6.25-1.46 6.25-6.01v-1.9c-1.9 2.1-4.9 2.6-8.4 2.6-7.5 0-12.75-6.05-12.75-13.55 0-7.5 5.25-13.6 12.75-13.6 3.04-0.09 6 1 8.25 3.05h0.15v-2.3h8.85v26.35c0 8.61-6.35 13.06-15.1 13.06-5.35 0-11.5-1.2-14.2-7.45zm7.45-9.56c3.18 0.11 5.84-2.38 5.95-5.57q0.01-0.21 0-0.43c0.04-3.3-2.6-6-5.9-6.05-3.3-0.04-6.01 2.61-6.05 5.91q0 0.07 0 0.14c-0.16 3.16 2.27 5.85 5.43 6q0.28 0.02 0.57 0z"/>
				<path id="&lt;Path&gt;" class="s0" d="m649.93 875.88l-20.15 38.66h-10.2l8.85-17.01-12.15-21.65h10.2l7.15 13.15 6.1-13.15z"/>
				<path id="&lt;Path&gt;" class="s0" d="m675.03 901.53l-13.75-25.65h10.2l6.25 13.85 6.15-13.85h6.1l6.15 13.85 6.25-13.85h10.2l-13.75 25.65h-6l-5.9-13.25-5.9 13.25z"/>
				<path id="&lt;Compound Path&gt;" fill-rule="evenodd" class="s0" d="m721.78 889.93c0 3.95 3.3 5.3 5.55 5.3 2.85 0 4.1-0.55 6.25-2.85l6.4 3.2c-2.9 4.85-7.6 6.7-13.3 6.7-7.75 0-14.1-6.1-14.1-13.55 0.16-7.64 6.46-13.72 14.1-13.6 7.8 0 13.75 4.6 13.75 13.6q0.01 0.61-0.05 1.2zm10-4.9c-0.21-2.47-2.37-4.32-4.85-4.15-3.05 0-4.75 1.8-4.9 4.15z"/>
				<path id="&lt;Path&gt;" class="s0" d="m759.73 866.33h8.85v9.55h5.4v6.75h-5.4v8.15c0 2.4 0.6 3.55 2 3.55 0.79-0.05 1.56-0.33 2.2-0.8l2.2 7.15c-2.01 1.03-4.24 1.58-6.5 1.6-7.05 0-8.75-5.25-8.75-9.8v-9.85h-3.7v-6.75h3.7z"/>
				<path id="&lt;Path&gt;" class="s0" d="m777.98 875.88h8.85v3.7h0.1c0 0 2.8-4.45 7.85-4.45 1.98 0 3.92 0.56 5.6 1.6l-3.7 7.5c-1.34-0.96-2.96-1.45-4.6-1.4-4.6 0-5.25 4.55-5.25 5.2v13.5h-8.85z"/>
				<path id="&lt;Path&gt;" class="s0" d="m811.23 888.08c0 5.05 1.35 7 5.05 7 3.7 0 5.05-1.95 5.05-7v-12.2h8.85v14.35c0 8.6-4.3 12.05-13.9 12.05-9.6 0-13.9-3.45-13.9-12.05v-14.35h8.85z"/>
				<path id="&lt;Path&gt;" class="s0" d="m855.23 877.13l-2.9 5.8c-1.77-0.92-3.71-1.46-5.7-1.6-1.95 0-2.75 0.35-2.75 1.55 0 1.35 1.8 1.75 4 2.45 3.4 1.05 7.8 2.95 7.8 8.2 0 7.55-6.9 8.75-12.15 8.75-3.61 0.05-7.11-1.17-9.9-3.45l3.6-6.05c0 0 3.5 2.95 6.35 2.95 1.25 0 2.75-0.15 2.75-1.85 0-1.85-2.8-2-5.7-3.5-2.6-1.35-5.2-3.15-5.2-7 0-5.25 4.45-8.25 11.2-8.25 2.98 0.01 5.92 0.69 8.6 2z"/>
				<path id="&lt;Path&gt;" class="s0" d="m861.13 866.33h8.85v9.55h5.4v6.75h-5.4v8.15c0 2.4 0.6 3.55 2 3.55 0.79-0.05 1.56-0.33 2.2-0.8l2.2 7.15c-2.02 1.03-4.24 1.58-6.5 1.6-7.05 0-8.75-5.25-8.75-9.8v-9.85h-3.7v-6.75h3.7z"/>
			</g>
			<path id="&lt;Path&gt;" class="s0" d="m110.95 763.36c-0.64-1.43-1.64-2.67-2.9-3.6l-17.8-15.6c0 0-18.6 4.5-19.9 25.8 0 0-1.8 15.2 2.9 25.2l2.7 5.7c0 0 1.7 3.7 10.1 16.3l17.1 23c2.78 3.69 5.19 7.64 7.2 11.8 0 0 2.2 8 6.2 8.5 0.71 0.16 1.45-0.02 2-0.5 0 0 0.4 0.3 1.8-4.7l8-24.1c2.5-7.5 5.2-15.2 8-22.9 4.9-13.6 10-26.8 15.1-39.5q2.87 0.66 5.8 0.9c0 0 3.1 0.1 4.5-1.1 0.1 0 0.1-0.1 0.2-0.2 1.3-1.4 0.1-3.4 0-3.6-1.3-1.75-2.85-3.3-4.6-4.6 2.3-2.5 4.9-5 7.7-7.6q6.49-5.9 13.7-10.9c5.96-4.73 13.52-6.98 21.1-6.3 5.73 0.55 11.13 2.94 15.4 6.8 9 8.4 8.5 20.2 8.3 22q0.35 9.52-0.6 19c-1.6 15.61-5.37 30.93-11.2 45.5 0 0-8.7 32.8-44.7 61.9 0 0-29.9 24.8-64.7 24.1 0 0-52.1 3-77.1-36.8 0 0-4.9-6.4-6.2-23.9-0.65-13.6 2.25-27.15 8.4-39.3 3.3 1.3 6.5 2.7 9.8 4-1.4-11.9-2.9-23.9-4.3-35.8-10.5 7-21.1 14-31.6 21 3.3 1.3 6.5 2.7 9.8 4-8.45 14.29-12.26 30.85-10.9 47.4 0 0 0.8 16.4 7.8 30.5 0 0 12.5 26.6 46.4 39.9 0 0 44.3 18.8 95.5-3.4 0 0 48.8-20.4 73.8-71.3 7.3-14.8 11.6-31.5 13.1-37.2 6.7-25.5 6.5-41.5 5.8-50.3-0.9-11.4-3-19.1-7.3-26.1-2.88-4.62-6.5-8.74-10.7-12.2-5.18-4.13-11.18-7.13-17.6-8.8-6.9-1.1-13.95-0.97-20.8 0.4-26.3 5.1-40.6 26.5-44.2 32.1 0 0-3.6-5-5.9-3.2 0 0-3.9 2.3 1.2 8.1 0.2 0.3 0.5 0.5 0.7 0.8l-31.3 80c0 0-23.4-26.8-21.1-48.7 0 0 2.5-17.3 12.4-21.8 2.21-0.78 4.67-0.36 6.5 1.1 0 0 2.7 2.9 5.5 2 0.1 0.1 2 0.1 0.9-3.8z"/>
			<path id="&lt;Path&gt;" class="s0" d="m176.55 851.96l13.6-76.5h88l-18.6 19.8h-49.5l-1.5 9.1h60.1l-16.2 17.4h-47l-1.9 10.3h65l-18.7 19.6z"/>
			<path id="&lt;Path&gt;" class="s0" d="m367.65 795.66l18.7-19.9h-57c0 0-17.5-0.1-31.6 10 0 0-6.6 4.9-10.3 10-2.05 2.77-3.73 5.8-5 9-2.05 4.97-2.9 10.34-2.5 15.7 0 0 0 6.6 4.5 14.6 2.63 4.15 6.15 7.67 10.3 10.3 6.36 4.03 13.68 6.27 21.2 6.5h41.8l18.5-19.5h-54.6c0 0-17.4 0.3-18.1-15.8 0 0-0.4-18.4 23.8-20.8z"/>
			<path id="&lt;Path&gt;" class="s0" d="m408.55 851.76h23.4l10.1-56.2h27.2l18.9-19.8h-86.4l-19.1 19.7h35.7z"/>
			<path id="&lt;Compound Path&gt;" fill-rule="evenodd" class="s0" d="m588.45 825.66c0 0-5.5 18.1-31 24.3 0 0-26.7 7.3-55.6 0 0 0-15.5-2.7-21.1-17.3 0 0-11.6-38.7 24.4-52.6 0 0 20.7-9.2 55-4.4 0 0 17.2 2 25.5 12.1 0 0 3.4 3.6 5.7 13.3 0 0 2.3 10.7-2.9 24.6zm-21.1-21.9c-0.92-2.24-2.4-4.2-4.3-5.7-7.7-4.9-32.9-3.6-32.9-3.6-22.6 0-25 9.3-25 9.3-3.5 5.5-2.2 19.5-2.2 19.5 0.9 3.3 2.2 4.3 2.2 4.3 5.5 6.4 27.6 5.7 27.6 5.7 27.3 0.5 31.1-6.7 31.1-6.7 6.4-8.5 3.7-22.9 3.5-22.8z"/>
			<path id="&lt;Path&gt;" class="s0" d="m609.45 795.46l18.9-19.9h52.2c0 0 20-0.6 28.2 12.1 0 0 7.7 9.7-2 27.3 0 0-5.5 9.4-19.4 12l20.2 24.8h-31.3l-13.9-20.2h-35.8l-3.7 20.2h-23.7l7-39h67.9c0 0 12.6-0.6 13-9.2 0 0 1.3-7.6-10.6-8.2z"/>
			<path id="&lt;Path&gt;" class="s0" d="m743.25 851.86h-23.6l13.5-76.3h23.3z"/>
			<path id="&lt;Path&gt;" class="s0" d="m772.85 775.06h23.6l-8.1 43.6c0 0-2.1 11.2 8.1 12.6 0 0 11.6 2.9 33.6 0 0 0 6.1-1.6 9.2-6.9 0 0 5.2-19.2 9.8-49.3h23.6l-8.1 44.8c0 0-2.5 23.6-29 29.7 0 0-36.2 9-61.2-4.9 0 0-10.5-5.2-9.8-20.4z"/>
			<path id="&lt;Path&gt;" class="s0" d="m865.05 851.66h23.2l20.3-46.7 14.2 40.9c0 0 2.5 7.8 11 7.2 0 0 10.2 0.6 14.5-6.5l29.3-42.3 4 47.3h23.3l-7.7-68.2c0 0-0.8-7.9-8.4-8.8-6.65-1.29-13.4 1.7-16.9 7.5l-31.9 44.6-17.3-45.3c0 0-3.5-7.2-10.3-7-6.01-0.4-11.69 2.77-14.5 8.1-5 9.2-32.8 69.2-32.8 69.2z"/>
			<path id="&lt;Path&gt;" class="s0" d=""/>
			<path id="&lt;Path&gt;" class="s0" d=""/>
			<path id="&lt;Path&gt;" class="s0" d=""/>
			<path id="&lt;Path&gt;" class="s0" d=""/>
			<path id="&lt;Path&gt;" class="s0" d="m263.13 752.59l3.56-7.94h5.98l-7.83 14.61h-3.41l-7.83-14.61h5.97z"/>
			<path id="&lt;Compound Path&gt;" fill-rule="evenodd" class="s0" d="m277.91 752.65c-0.02 1.65 1.3 3 2.95 3.02q0.11 0.01 0.21 0c1.39 0.11 2.74-0.5 3.56-1.62l3.65 1.82c-1.65 2.76-4.33 3.81-7.58 3.81-4.27 0.17-7.86-3.16-8.02-7.43-0.16-4.27 3.17-7.87 7.44-8.03q0.29-0.01 0.58 0c4.45 0 7.83 2.62 7.83 7.75q0.01 0.34-0.02 0.68zm5.69-2.79c-0.12-1.41-1.35-2.46-2.76-2.36-1.38-0.16-2.63 0.84-2.78 2.22q-0.01 0.07-0.01 0.14z"/>
			<path id="&lt;Path&gt;" class="s0" d="m295.2 751.94c-0.05 1.95 1.5 3.57 3.46 3.61q0 0.01 0.01 0.01c0.87 0.01 1.72-0.23 2.45-0.69l1.71 3.5c-1.46 0.94-3.17 1.4-4.9 1.31-4.21 0-8.09-3.41-8.09-7.68 0.35-4.63 4.38-8.11 9.01-7.76 1.42 0.11 2.79 0.57 3.98 1.35l-1.71 3.44c-0.73-0.46-1.58-0.69-2.45-0.68-1.95 0.03-3.5 1.64-3.47 3.59z"/>
			<path id="&lt;Path&gt;" class="s0" d="m305.59 739.21h5.04v5.44h3.08v3.84h-3.08v4.65c0 1.36 0.34 2.02 1.14 2.02q0.69-0.05 1.25-0.46l1.25 4.07c-1.14 0.59-2.41 0.9-3.7 0.91-4.01 0-4.98-2.99-4.98-5.58v-5.61h-2.11v-3.84h2.11z"/>
			<path id="&lt;Compound Path&gt;" fill-rule="evenodd" class="s0" d="m323.73 744.22c4.84 0 8.71 3.19 8.71 7.75 0 4.5-3.67 7.71-8.71 7.71-5.27 0-8.8-3.21-8.8-7.71 0-4.56 3.87-7.75 8.8-7.75zm-0.03 11.16c1.81 0.06 3.33-1.36 3.39-3.17q0-0.12 0-0.24c0.02-1.88-1.48-3.42-3.36-3.45-1.88-0.02-3.42 1.48-3.45 3.36q0 0.05 0 0.09c-0.09 1.8 1.3 3.33 3.09 3.41q0.17 0.01 0.33 0z"/>
			<path id="&lt;Path&gt;" class="s0" d="m334.75 744.65h5.04v2.11h0.05c1.01-1.51 2.67-2.45 4.47-2.54 1.13 0 2.24 0.32 3.19 0.91l-2.1 4.28c-0.76-0.55-1.69-0.83-2.62-0.8-1.63 0.02-2.96 1.33-2.99 2.96v7.69h-5.04z"/>
			<path id="&lt;Compound Path&gt;" fill-rule="evenodd" class="s0" d="m351.52 735.62q0 0 0 0c-1.65 0-2.99 1.34-2.99 2.99 0 1.66 1.34 2.99 2.99 2.99 1.65 0 2.99-1.34 2.99-2.99 0-1.65-1.34-2.99-2.99-2.99zm-2.59 23.64h5.04v-14.61h-5.04z"/>
			<path id="&lt;Path&gt;" class="s0" d="m362.28 751.6c0 2.87 0.77 3.98 2.88 3.98 2.1 0 2.87-1.11 2.87-3.98v-6.95h5.04v8.17c0 4.9-2.45 6.86-7.91 6.86-5.47 0-7.92-1.96-7.92-6.86v-8.17h5.04z"/>
			<path id="&lt;Path&gt;" class="s0" d="m376.2 744.65h5.04v1.54h0.06c1.08-1.19 2.59-1.89 4.19-1.97 2.06-0.13 4.03 0.9 5.09 2.68 1.13-1.58 2.91-2.56 4.84-2.68 2.68 0 5.7 1.34 5.7 5.41v9.63h-5.04v-8.26c0.15-1.35-0.82-2.57-2.18-2.72q-0.19-0.02-0.38-0.01c-1.24-0.06-2.28 0.9-2.34 2.14q0 0.07 0 0.13v8.72h-5.04v-8.26c0.15-1.35-0.82-2.57-2.17-2.72q-0.2-0.02-0.39-0.01c-1.25-0.05-2.3 0.93-2.34 2.17q-0.01 0.14 0 0.28v8.54h-5.04z"/>
			<path id="&lt;Path&gt;" class="s0" d="m410.77 756.44c-0.01 1.8-1.47 3.25-3.27 3.24-1.8 0-3.26-1.47-3.25-3.27 0.01-1.79 1.46-3.24 3.25-3.25 1.79-0.01 3.26 1.44 3.27 3.23q0 0.02 0 0.05z"/>
			<path id="&lt;Path&gt;" class="s0" d="m418.49 751.94c-0.04 1.95 1.5 3.57 3.46 3.61q0.01 0.01 0.01 0.01c0.87 0.01 1.72-0.23 2.45-0.69l1.71 3.5c-1.46 0.94-3.17 1.4-4.9 1.31-4.21 0-8.08-3.41-8.08-7.68 0.34-4.63 4.37-8.11 9-7.76 1.42 0.11 2.79 0.57 3.98 1.35l-1.71 3.44c-0.73-0.46-1.58-0.69-2.45-0.68-1.95 0.03-3.5 1.64-3.47 3.59z"/>
			<path id="&lt;Compound Path&gt;" fill-rule="evenodd" class="s0" d="m435.91 744.22c4.85 0 8.72 3.19 8.72 7.75 0 4.5-3.68 7.71-8.72 7.71-5.26 0-8.79-3.21-8.79-7.71 0-4.56 3.87-7.75 8.79-7.75zm-0.02 11.16c1.81 0.06 3.33-1.36 3.39-3.17q0-0.12 0-0.24c0.02-1.88-1.49-3.42-3.37-3.45-1.88-0.02-3.42 1.48-3.44 3.36q0 0.05 0 0.09c-0.09 1.8 1.29 3.33 3.09 3.41q0.16 0.01 0.33 0z"/>
		</g>
	</g>
</svg>