<svg version="1.2" xmlns="http://www.w3.org/2000/svg" viewBox="0 0 1439 941" width="1439" height="941">
	<style>
		.s0 { fill: #ffffff } 
	</style>
	<g id="Livello 1">
		<path id="&lt;Path&gt;" class="s0" d="m1303.37 51.27c-0.63-1.43-1.63-2.67-2.9-3.6l-17.8-15.6c0 0-18.6 4.5-19.9 25.8 0 0-1.8 15.2 2.9 25.2l2.7 5.7c0 0 1.7 3.7 10.1 16.3l17.1 23c2.79 3.69 5.2 7.64 7.2 11.8 0 0 2.2 8 6.2 8.5 0.71 0.16 1.46-0.02 2-0.5 0 0 0.4 0.3 1.8-4.7l8-24.1c2.5-7.5 5.2-15.2 8-22.9 4.9-13.6 10-26.8 15.1-39.5q2.87 0.65 5.8 0.9c0 0 3.1 0.1 4.5-1.1 0.1 0 0.1-0.1 0.2-0.2 1.3-1.4 0.1-3.4 0-3.6-1.29-1.75-2.84-3.3-4.6-4.6 2.3-2.5 4.9-5 7.7-7.6q6.5-5.9 13.7-10.9c5.97-4.73 13.52-6.99 21.1-6.3 5.74 0.55 11.14 2.93 15.4 6.8 9 8.4 8.5 20.2 8.3 22q0.36 9.52-0.6 19c-1.6 15.61-5.37 30.93-11.2 45.5 0 0-8.7 32.8-44.7 61.9 0 0-29.9 24.8-64.7 24.1 0 0-52.1 3-77.1-36.8 0 0-4.9-6.4-6.2-23.9-0.64-13.61 2.25-27.15 8.4-39.3 3.3 1.3 6.5 2.7 9.8 4-1.4-11.9-2.9-23.9-4.3-35.8-10.5 7-21.1 14-31.6 21 3.3 1.3 6.5 2.7 9.8 4-8.45 14.29-12.26 30.85-10.9 47.4 0 0 0.8 16.4 7.8 30.5 0 0 12.5 26.6 46.4 39.9 0 0 44.3 18.8 95.5-3.4 0 0 48.8-20.4 73.8-71.3 7.3-14.8 11.6-31.5 13.1-37.2 6.7-25.5 6.5-41.5 5.8-50.3-0.9-11.4-3-19.1-7.3-26.1-2.88-4.62-6.49-8.74-10.7-12.2-5.18-4.14-11.18-7.14-17.6-8.8-6.9-1.1-13.94-0.97-20.8 0.4-26.3 5.1-40.6 26.5-44.2 32.1 0 0-3.6-5-5.9-3.2 0 0-3.9 2.3 1.2 8.1 0.2 0.3 0.5 0.5 0.7 0.8l-31.3 80c0 0-23.4-26.8-21.1-48.7 0 0 2.5-17.3 12.4-21.8 2.22-0.78 4.67-0.37 6.5 1.1 0 0 2.7 2.9 5.5 2 0.1 0.1 2 0.1 0.9-3.8z"/>
	</g>
</svg>